<svg viewBox="-9.53 0 526.896 526.896" xmlns="http://www.w3.org/2000/svg"><g data-name="Group 9" fill-rule="evenodd"><path d="M157.88 327.288q8.228 45.62 49.219 37.68a8.079 8.079 0 0 0 5.811-4.613q47.6-96.94 117.921-120.986a7.949 7.949 0 0 1 2-.4q86.72-5.04 111.706-99.773c.053-.173.08-.333.12-.52q17.34-85-36.027-117.36-55.5-34.52-125.386 1.933a7.679 7.679 0 0 0-1.08.68c-54.093 40.213-55.319 85.893-7.68 142.493a7.4 7.4 0 0 0 .907.92c41.507 36.173 76.813 35.707 109.906-6.867.053-.08.107-.133.16-.213 24.373-33.32 30.493-84.84-1.8-100.386-.107-.053-.2-.093-.293-.133-40.427-17.427-79.8-6.453-99 37.693a7.74 7.74 0 0 0-.307.773c-6.867 20.613 37.253 56.453 55.52 49.733 13.56-4.773 34.587-33.027 26.16-47.28a8.091 8.091 0 0 0-1.547-1.933 52.671 52.671 0 0 0-14.893-9.88 7.836 7.836 0 0 0-10.053 3.987 9.277 9.277 0 0 0 2.147 11.373c3.84 3.147 5.32 8.08 2.88 11.893a10.845 10.845 0 0 0-.533.947c-7.173 14.827-32.427 1.16-34.907-12.013a9.142 9.142 0 0 1 .613-5.56c20.8-48.267 80.266-28.773 73.787 1.08a9.208 9.208 0 0 0-.227 1.907c-.333 25-12.133 43.84-30.627 60.64a4.969 4.969 0 0 1-.573.48q-33.82 25.68-81.866-39.4a8.266 8.266 0 0 1-.867-1.44c-19.56-40.88 4.507-66.64 43.293-86.413a6.844 6.844 0 0 1 1.013-.44c65.28-22.467 131.306 16.92 111.946 95.426q-20.46 83.74-138.613 90.84a5.991 5.991 0 0 1-1.093-.027q-79.512-6.9-127.064 99.56a9.227 9.227 0 0 0-.673 5.6" fill="#43bb4e"/><path d="m80.39 458.675-13.1 27.68c-1.508 3.187-.607 6.8 2.084 8.373l11.893 6.96c2.448-7.28 4.361-14.493 4.289-21.467-.073-7.387-2.368-14.493-5.163-21.547" fill="#f0393c"/><path d="M80.39 458.675c2.795 7.053 5.089 14.16 5.163 21.547.072 6.973-1.841 14.187-4.289 21.467l28.173 16.467c2.689 1.573 6.243.573 8.237-2.32l23.759-34.44c.113-1.293.169-2.6.156-3.88-.189-19.04-15.171-36.307-15.359-55.333s14.409-39.853 14.223-58.88c-.071-7.2-2.252-14.133-4.965-20.987l-55.1 116.36" fill="#f9b317"/><path d="M126.23 422.182c.188 19.027 15.169 36.293 15.359 55.333a40.112 40.112 0 0 1-.156 3.88l38.493-55.786a33.044 33.044 0 0 1-.049-1.573c-.183-18.093 13.007-37.8 14.145-56.067l-49.68-29.055a5.511 5.511 0 0 0-4.931-.32 7.069 7.069 0 0 0-3.912 3.693s0 .013-.012.027c2.713 6.853 4.895 13.787 4.965 20.987.187 19.027-14.416 39.84-14.223 58.88" fill="#f0393c"/><path d="M194.022 367.968c-1.139 18.267-14.328 37.973-14.145 56.067 0 .52.02 1.053.049 1.573l28.167-40.827a7.145 7.145 0 0 0 1.26-5.28 5.567 5.567 0 0 0-2.728-4.16l-12.6-7.373" fill="#f9b317"/><path d="m132.449 338.395 80.528 47.093a5.75 5.75 0 0 0 4.915.507 5.838 5.838 0 0 0 3.62-3.387l12.181-29.213a6.042 6.042 0 0 0-2.519-7.573l-73.6-43.04a5.939 5.939 0 0 0-7.769 1.547l-19.111 25.173a5.861 5.861 0 0 0-1.119 4.84 5.811 5.811 0 0 0 2.872 4.053" fill="#5b7fc9"/><path d="M267.39 280.409a24.841 24.841 0 0 0-22.975-15.533 24.923 24.923 0 0 0-24.823 25.027 24.994 24.994 0 0 0 19.908 24.533 248.381 248.381 0 0 1 27.889-34.027M279.003 221.755a15.545 15.545 0 0 0 15.057 11.84 15.56 15.56 0 0 0 15.387-13.64q-10.86 1.48-22.733 2.2a7.477 7.477 0 0 1-1.093-.027c-2.227-.187-4.427-.32-6.613-.373M380.23 215.022a12.371 12.371 0 0 0-12.32 12.413 12.469 12.469 0 0 0 .906 4.693 105.014 105.014 0 0 0 22.2-10.693 12.31 12.31 0 0 0-10.787-6.413M407.136 170.969a15.578 15.578 0 0 0 14.147-15.573 15.664 15.664 0 0 0-1.547-6.8 103.02 103.02 0 0 1-12.6 22.373M437.71 78.636a9.469 9.469 0 0 0 9.427 9.507 9.375 9.375 0 0 0 1.24-.08 106.647 106.647 0 0 0-3.32-18.693 9.5 9.5 0 0 0-7.346 9.267M388.23 37.929a12.5 12.5 0 0 0 .8-4.44 12.363 12.363 0 0 0-12.32-12.413 12.367 12.367 0 0 0-12.027 9.693 85.133 85.133 0 0 1 23.547 7.16M292.51 25.583a18.652 18.652 0 0 0 18.027-14.04 185.7 185.7 0 0 0-27.16 11.64 18.44 18.44 0 0 0 9.133 2.4M273.537 64.956a14.424 14.424 0 0 0-2.747-.267 14.016 14.016 0 0 0-13.964 14.067 14.093 14.093 0 0 0 5.6 11.28c1.093-9.293 5.013-17.587 11.107-25.08M261.482 136.622a12.46 12.46 0 0 0-12.413-12.507 11.814 11.814 0 0 0-1.827.133 137.65 137.65 0 0 0 11.148 20.64 12.514 12.514 0 0 0 3.092-8.267M298.417 156.955a12.761 12.761 0 0 0 12.707 12.813 12.535 12.535 0 0 0 6.493-1.8 71.533 71.533 0 0 1-19.16-12.067c-.027.347-.04.707-.04 1.053M382.243 112.342a70.209 70.209 0 0 1-5.053 17.92 8.364 8.364 0 0 0 1.427.107 9.349 9.349 0 0 0 9.307-9.387 9.4 9.4 0 0 0-5.68-8.64M369.31 168.689a12.462 12.462 0 0 0-12.413 12.507 12.677 12.677 0 0 0 .906 4.733 86.144 86.144 0 0 0 18.547-15.027 12.229 12.229 0 0 0-7.04-2.213M382.243 63.796a7.859 7.859 0 0 0 7.827 7.88 7.753 7.753 0 0 0 5.667-2.467 35.9 35.9 0 0 0-12.08-9.333l-.293-.133a7.868 7.868 0 0 0-1.12 4.053M350.177 70.222a9.305 9.305 0 0 0-8.8-6.32 9.341 9.341 0 0 0-9.307 9.387c0 .347.027.693.053 1.04a41.375 41.375 0 0 1 18.053-4.107M291.737 110.036a14.888 14.888 0 0 0-7.293-12.813 3.77 3.77 0 0 0-.08.213l-.307.773c-1.987 5.973.307 13.227 5.013 20.36a14.9 14.9 0 0 0 2.667-8.533M317.336 117.862a11.666 11.666 0 0 0 11.627 11.72 11.659 11.659 0 0 0 11.067-8.067c-6.027 4.16-15.667 1.267-22.68-4.253-.013.2-.013.4-.013.6M15.025 419.901a14.248 14.248 0 0 1 13.3 15.12 14.212 14.212 0 0 1-15 13.4A14.248 14.248 0 0 1 .02 433.301a14.2 14.2 0 0 1 15-13.4M487.63 201.782a21.613 21.613 0 0 1 20.16 22.92 21.548 21.548 0 0 1-22.73 20.32 21.6 21.6 0 0 1-20.16-22.907 21.559 21.559 0 0 1 22.733-20.333" fill="#f9b317"/><path d="M352.55 367.568a56.876 56.876 0 0 1 32.84-31.133 4.143 4.143 0 0 0 2.773-3.827 4.149 4.149 0 0 0-2.533-3.987 56.937 56.937 0 0 1-30.88-33.107 4.081 4.081 0 0 0-3.787-2.787 4.106 4.106 0 0 0-3.96 2.533 56.818 56.818 0 0 1-32.853 31.133 4.144 4.144 0 0 0-2.76 3.827 4.138 4.138 0 0 0 2.52 3.987 56.958 56.958 0 0 1 30.88 33.12 4.129 4.129 0 0 0 3.8 2.787 4.1 4.1 0 0 0 3.96-2.547" fill="#5b7fc9"/><path d="M366.79 315.302q-3.78 28.9-34.027 32.24a56.849 56.849 0 0 1 12.027 19.787 4.13 4.13 0 0 0 3.8 2.787 4.1 4.1 0 0 0 3.96-2.547 56.876 56.876 0 0 1 32.84-31.133 4.143 4.143 0 0 0 2.773-3.827 4.149 4.149 0 0 0-2.533-3.987 56.586 56.586 0 0 1-18.84-13.32" fill="#4267ba"/><path d="m47.052 266.649 23.8 27.053a6.059 6.059 0 0 1-.5 8.493l-26.839 24a5.956 5.956 0 0 1-8.435-.507l-23.805-27.053a6.075 6.075 0 0 1 .505-8.507l26.837-24a5.946 5.946 0 0 1 8.436.52" fill="#43bb4e"/><path d="M58.953 280.168q-5.858 26.16-35.775 31.987l11.9 13.533a5.955 5.955 0 0 0 8.435.507l26.836-24a6.052 6.052 0 0 0 .5-8.493l-11.9-13.533" fill="#32a940"/><path d="m210.242 1.383 16.24 18.453a4.141 4.141 0 0 1-.343 5.8l-18.312 16.378a4.057 4.057 0 0 1-5.755-.347l-16.24-18.453a4.155 4.155 0 0 1 .344-5.813l18.311-16.373a4.072 4.072 0 0 1 5.756.36" fill="#f9b317"/><path d="M218.36 10.614q-4 17.84-24.409 21.827l8.12 9.227a4.057 4.057 0 0 0 5.755.347l18.309-16.373a4.136 4.136 0 0 0 .344-5.8l-8.119-9.228" fill="#db8e19"/><path d="M172.566 155.276a5.313 5.313 0 0 1 7.079-2.587 5.38 5.38 0 0 1 2.561 7.133l-9.924 21.36a5.315 5.315 0 0 1-7.08 2.587 5.4 5.4 0 0 1-2.562-7.147l9.927-21.347M153.605 196.062a5.314 5.314 0 0 1 7.08-2.587 5.4 5.4 0 0 1 2.561 7.147l-9.927 21.347a5.315 5.315 0 0 1-7.08 2.587 5.384 5.384 0 0 1-2.561-7.133l9.927-21.36M129.86 178.914a5.379 5.379 0 0 1-2.561-7.133 5.314 5.314 0 0 1 7.079-2.587l21.183 10.013a5.383 5.383 0 0 1 2.561 7.133 5.315 5.315 0 0 1-7.08 2.587l-21.182-10.013M170.325 198.035a5.382 5.382 0 0 1-2.561-7.133 5.313 5.313 0 0 1 7.079-2.587l21.183 10.013a5.383 5.383 0 0 1 2.561 7.133 5.3 5.3 0 0 1-7.079 2.573l-21.183-10M254.869 452.728a5.34 5.34 0 0 1 5.877-4.747 5.361 5.361 0 0 1 4.711 5.92l-2.573 23.44a5.341 5.341 0 0 1-5.883 4.747 5.349 5.349 0 0 1-4.705-5.92l2.573-23.44M249.953 497.501a5.34 5.34 0 0 1 5.877-4.747 5.37 5.37 0 0 1 4.705 5.933l-2.575 23.427a5.331 5.331 0 0 1-5.877 4.747 5.349 5.349 0 0 1-4.705-5.92l2.573-23.44M221.997 488.981a5.356 5.356 0 0 1-4.705-5.92 5.331 5.331 0 0 1 5.877-4.747l23.249 2.6a5.348 5.348 0 0 1 4.705 5.92 5.339 5.339 0 0 1-5.876 4.747l-23.251-2.6M266.417 493.941a5.365 5.365 0 0 1-4.711-5.933 5.326 5.326 0 0 1 5.871-4.733l23.253 2.587a5.374 5.374 0 0 1 4.707 5.933 5.325 5.325 0 0 1-5.88 4.733l-23.24-2.587" fill="#f0393c"/></g></svg>