<svg viewBox="0 0 24 24" fill="none" xmlns="http://www.w3.org/2000/svg">
  <g stroke="currentColor" stroke-width="1.5">
    <path d="M12 22h10" stroke-linecap="round"/>
    <path d="M13.5 7.5c0 .8284-.6716 1.5-1.5 1.5s-1.5-.6716-1.5-1.5S11.1716 6 12 6s1.5.6716 1.5 1.5ZM13.5 16.5c0 .8284-.6716 1.5-1.5 1.5s-1.5-.6716-1.5-1.5.6716-1.5 1.5-1.5 1.5.6716 1.5 1.5ZM7.5 10.5c.8284 0 1.5.6716 1.5 1.5s-.6716 1.5-1.5 1.5S6 12.8284 6 12s.6716-1.5 1.5-1.5ZM16.5 10.5c.8284 0 1.5.6716 1.5 1.5s-.6716 1.5-1.5 1.5S15 12.8284 15 12s.6716-1.5 1.5-1.5Z"/>
    <path d="M7 3.3378C8.4709 2.487 10.1786 2 12 2c5.5228 0 10 4.4771 10 10 0 5.5228-4.4772 10-10 10-5.5229 0-10-4.4772-10-10 0-1.8214.487-3.5291 1.3378-5" stroke-linecap="round"/>
  </g>
</svg>